<?xml version="1.0" encoding="utf-8"?>
<!-- Generator: Adobe Illustrator 18.1.1, SVG Export Plug-In . SVG Version: 6.00 Build 0)  -->
<svg version="1.1" id="Layer_1" xmlns="http://www.w3.org/2000/svg" xmlns:xlink="http://www.w3.org/1999/xlink" x="0px" y="0px"
	 viewBox="-163 116.9 32 32.1" enable-background="new -163 116.9 32 32.1" xml:space="preserve">
<g>
	<path fill="#B6334B" d="M-151.1,142c-1.2,0-2.4-0.5-3.1-1.4c-1.4-1.5-2.4-0.6-2.7,0.9c-1.5,7.5,0.7,7.4,0.7,7.4l21.3,0.1
		c2.2,0,4-1.8,4-4v-14c0-2.2,0.3-5.3-1.8-4.4c-1.5,0.7-3.5,1.1-6.7,0.4c-1.5-0.3-2.4-1.3-0.9-2.7c0.8-0.8,1.4-1.9,1.4-3.1
		c0-2.3-1.9-4.2-4.2-4.2c-2.3,0-4.2,1.9-4.2,4.2c0,1.3,0.7,2.4,1.6,3.3c0.5,0.5,1.9,1.9-1.6,2.5c-3.9,0.7-7.7-1.5-8.4-0.7
		c-0.5,0.5-1.9,2.5-1,7.2c0.7,3.6,2,2.1,2.5,1.6c0.9-0.9,2-1.6,3.3-1.6c2.3,0,4.2,1.9,4.2,4.2C-146.9,140.1-148.8,142-151.1,142z"/>
</g>
</svg>
